<?xml version="1.0" encoding="utf-8"?>
<!-- Generator: Adobe Illustrator 26.1.0, SVG Export Plug-In . SVG Version: 6.00 Build 0)  -->
<svg version="1.1" id="Layer_1" xmlns="http://www.w3.org/2000/svg" xmlns:xlink="http://www.w3.org/1999/xlink" x="0px" y="0px"
	 viewBox="0 0 1155.9 320" style="enable-background:new 0 0 1155.9 320;" xml:space="preserve">
<style type="text/css">
	.st0{fill:#FFFFFF;}
</style>
<path class="st0" d="M1155.9,48.5c-25.1,22-60.2,49.7-95.6,60.6c-45.7,14.5-92-0.2-137.7-21.5C876.2,66,830.1,37.8,784.1,44.7
	c-46.4,7.2-92.3,50.1-138.4,60.8c-45.7,10.7-92.1-10.7-138.4-35.7c-45.7-25.3-91.9-53.4-137.7-53.6c-24.5,0.1-49.7,10.6-71,21.5
	c-10.2,5.2-20,11.3-29.4,17.9c-13.3,9.3-26.5,16-39.3,23.1c-44,24.7-92.1,36-137.7,21.5C58.3,89.7,25.8,63.9,1,42.5
	C-0.1,41.5,1,0,1,0h1154.9C1155.9,0,1156.7,47.8,1155.9,48.5z"/>
</svg>
